<?xml version="1.0" encoding="UTF-8"?>
<svg width="590px" height="590px" viewBox="0 0 590 590" version="1.1" xmlns="http://www.w3.org/2000/svg" xmlns:xlink="http://www.w3.org/1999/xlink" xmlns:sketch="http://www.bohemiancoding.com/sketch/ns">
    <!-- Generator: Sketch 3.4.3 (16044) - http://www.bohemiancoding.com/sketch -->
    <title>diag-blue</title>
    <desc>Created with Sketch.</desc>
    <defs>
        <linearGradient x1="50%" y1="0%" x2="50%" y2="100%" id="linearGradient-1">
            <stop stop-color="#CFEBFF" offset="0%"></stop>
            <stop stop-color="#FFFFFF" offset="100%"></stop>
        </linearGradient>
    </defs>
    <g id="Page-1" stroke="none" stroke-width="1" fill="none" fill-rule="evenodd" sketch:type="MSPage">
        <g id="Group" sketch:type="MSLayerGroup" transform="translate(-93.509766, -1697.158203)">
            <g transform="translate(93.843750, 1697.757812)" id="Rectangle-3" sketch:type="MSShapeGroup">
                <rect stroke="#FFEAAA" fill="#FFFFFF" x="0" y="98" width="99" height="99" rx="2"></rect>
                <rect stroke="#FFEAAA" fill="#FFFFFF" x="98" y="0" width="99" height="99" rx="2"></rect>
                <rect stroke="#FFEAAA" fill="#FFFFFF" x="98" y="98" width="99" height="99" rx="2"></rect>
                <rect stroke="#FFEAAA" fill="#FFFFFF" x="196" y="0" width="99" height="99" rx="2"></rect>
                <rect stroke="#FFEAAA" fill="#FFFFFF" x="294" y="0" width="99" height="99" rx="2"></rect>
                <rect stroke="#FFEAAA" fill="#FFFFFF" x="392" y="0" width="99" height="99" rx="2"></rect>
                <rect stroke="#FFEAAA" fill="#FFFFFF" x="490" y="0" width="99" height="99" rx="2"></rect>
                <rect stroke="#FFEAAA" fill="#FFFFFF" x="196" y="98" width="99" height="99" rx="2"></rect>
                <rect stroke="#FFEAAA" fill="#FFFFFF" x="294" y="98" width="99" height="99" rx="2"></rect>
                <rect stroke="#FFEAAA" fill="#FFFFFF" x="392" y="98" width="99" height="99" rx="2"></rect>
                <rect stroke="#FFEAAA" fill="#FFFFFF" x="0" y="196" width="99" height="99" rx="2"></rect>
                <rect stroke="#FFEAAA" fill="#FFFFFF" x="98" y="196" width="99" height="99" rx="2"></rect>
                <rect stroke="#FFEAAA" fill="#FFFFFF" x="196" y="196" width="99" height="99" rx="2"></rect>
                <rect stroke="#FFEAAA" fill="#FFFFFF" x="294" y="196" width="99" height="99" rx="2"></rect>
                <rect stroke="#FFEAAA" fill="#FFFFFF" x="0" y="294" width="99" height="99" rx="2"></rect>
                <rect stroke="#FFEAAA" fill="#FFFFFF" x="98" y="294" width="99" height="99" rx="2"></rect>
                <rect stroke="#FFEAAA" fill="#FFFFFF" x="196" y="294" width="99" height="99" rx="2"></rect>
                <rect stroke="#FFEAAA" fill="#FFFFFF" x="0" y="392" width="99" height="99" rx="2"></rect>
                <rect stroke="#FFEAAA" fill="#FFFFFF" x="98" y="392" width="99" height="99" rx="2"></rect>
                <rect stroke="#FFEAAA" fill="#FFFFFF" x="0" y="490" width="99" height="99" rx="2"></rect>
                <path d="M0,98.5 L0,196.5 L0,294.5 L0,392.5 L0,490.5 L0,589 L99,589 L99,491 L197,491 L197,393 L295,393 L295,295 L393,295 L393,197 L491,197 L491,99 L589,99 L589,0 L490.5,0 L392.5,0 L294.5,0 L196.5,0 L98.5,0 L0,0 L0,98.5 Z" stroke="#CFEBFF" fill="url(#linearGradient-1)"></path>
            </g>
        </g>
    </g>
</svg>